<svg xmlns="http://www.w3.org/2000/svg" width="23.324" height="17.345" viewBox="0 0 23.324 17.345">
    <defs>
        <style>.a{fill:#25e2aa;}</style>
    </defs>
    <g transform="translate(23.324 59.645) rotate(180)">
        <path class="a"
              d="M11.972,111.673a1.06,1.06,0,1,0,1.5,1.5l3.18-3.18c.025-.025.048-.05.07-.077l.014-.019c.017-.021.033-.042.048-.065l.011-.018c.015-.023.03-.047.043-.071l.006-.013c.014-.026.027-.053.038-.081l0-.009c.012-.029.023-.059.032-.089l0-.01c.009-.03.017-.06.023-.09,0-.009,0-.017,0-.026,0-.025.009-.051.011-.077a1.045,1.045,0,0,0,0-.212c0-.026-.007-.052-.012-.078,0-.008,0-.017,0-.025-.006-.031-.014-.061-.023-.091l0-.009c-.009-.031-.02-.06-.032-.09l0-.008c-.012-.028-.025-.055-.038-.081l-.006-.012c-.013-.025-.028-.048-.043-.072l-.011-.018c-.015-.022-.031-.044-.048-.065l-.014-.018c-.022-.027-.045-.053-.07-.077l-3.18-3.18a1.06,1.06,0,0,0-1.5,1.5l1.371,1.371H1.06a1.06,1.06,0,0,0,0,2.12H13.343Z"
              transform="translate(0 -58.27)"/>
        <path class="a"
              d="M110.229,42.3a8.666,8.666,0,0,0-7.2,3.84,1.06,1.06,0,0,0,1.76,1.183,6.552,6.552,0,1,1,.009,7.312,1.06,1.06,0,1,0-1.757,1.187A8.673,8.673,0,1,0,110.229,42.3Z"
              transform="translate(-95.577 0)"/>
    </g>
</svg>
